<svg width="256" height="201" viewBox="0 0 256 201" fill="none" xmlns="http://www.w3.org/2000/svg">
<path fill-rule="evenodd" clip-rule="evenodd" d="M126.197 200.113C172.737 200.113 211.855 168.338 223.042 125.299C225.215 125.885 227.501 126.197 229.859 126.197C244.296 126.197 256 114.494 256 100.056C256 85.6191 244.296 73.9155 229.859 73.9155C227.501 73.9155 225.215 74.2278 223.042 74.8133C211.855 31.7745 172.737 0 126.197 0C79.9028 0 40.9518 31.4403 29.5316 74.1334C28.4217 73.9896 27.2899 73.9155 26.1408 73.9155C11.7037 73.9155 0 85.6191 0 100.056C0 114.494 11.7037 126.197 26.1408 126.197C27.2899 126.197 28.4217 126.123 29.5316 125.979C40.9518 168.672 79.9028 200.113 126.197 200.113Z" fill="#FCD702"/>
<circle cx="71.2112" cy="80.2253" r="10.8169" fill="black"/>
<circle cx="181.183" cy="80.2253" r="10.8169" fill="black"/>
<path fill-rule="evenodd" clip-rule="evenodd" d="M105.014 69.4084C105.014 75.2676 105.086 76.3702 105.465 79.7746C105.915 83.831 106.906 87.7797 110.081 91.613C113.033 95.1767 118.097 98.1835 127.211 97.964C134.761 97.7822 140.239 95.0986 143.301 88.2207C145.949 82.275 146.193 74.9131 146.193 69.4084H160.817C160.817 73.1269 160.865 80.7332 160.996 88.9535C161.121 96.7522 161.04 104.003 160.451 108.62C159.958 112.484 158.482 120.845 153.631 127.264C148.578 133.951 140.361 139.476 127.815 140.493C120.789 141.062 107.542 139.251 96.3808 128.743L91.1303 123.8L101.017 113.299L106.267 118.242C114.035 125.556 123.042 126.41 126.65 126.117C135.069 125.435 139.534 121.997 142.125 118.569C144.917 114.874 145.939 110.604 146.251 108.158C146.305 107.729 146.354 107.234 146.396 106.68C146.35 106.712 146.303 106.745 146.257 106.777C141.299 110.235 135.081 112.201 127.558 112.382C114.674 112.693 105.13 108.246 98.9737 100.812C93.0403 93.6484 90.9577 84.5665 90.9577 76.6197L90.9319 69.4084C90.9319 69.4084 101.947 69.4084 105.014 69.4084Z" fill="black"/>
</svg>
