<svg width="256" height="201" viewBox="0 0 256 201" fill="none" xmlns="http://www.w3.org/2000/svg">
<path fill-rule="evenodd" clip-rule="evenodd" d="M128.197 200.113C174.551 200.113 213.544 168.591 224.907 125.813C226.51 126.121 228.166 126.282 229.859 126.282C244.296 126.282 256 114.578 256 100.141C256 85.7037 244.296 74 229.859 74C228.181 74 226.54 74.1581 224.95 74.4603C213.641 31.6009 174.61 0 128.197 0C81.758 0 42.7082 31.6373 31.4252 74.5344C29.7185 74.184 27.9512 74 26.1408 74C11.7037 74 0 85.7037 0 100.141C0 114.578 11.7037 126.282 26.1408 126.282C27.9661 126.282 29.7477 126.095 31.4675 125.739C42.8055 168.554 81.8159 200.113 128.197 200.113Z" fill="#FCD702"/>
<circle cx="72.8169" cy="85.8169" r="10.8169" fill="black"/>
<circle cx="182.789" cy="85.8169" r="10.8169" fill="black"/>
<path fill-rule="evenodd" clip-rule="evenodd" d="M107.014 75C107.014 80.8592 107.086 81.9617 107.465 85.3662C107.915 89.4225 108.906 93.3712 112.081 97.2046C115.033 100.768 120.097 103.775 129.211 103.556C136.761 103.374 142.239 100.69 145.301 93.8123C147.949 87.8666 148.193 80.5047 148.193 75H162.817C162.817 78.7185 162.865 86.3247 162.996 94.5451C163.121 102.344 163.04 109.595 162.451 114.211C161.958 118.075 160.482 126.436 155.631 132.856C150.578 139.543 142.361 145.067 129.815 146.084C122.789 146.654 109.542 144.843 98.3808 134.335L93.1303 129.392L103.017 118.891L108.267 123.834C116.035 131.148 125.042 132.001 128.65 131.709C137.069 131.027 141.534 127.589 144.125 124.161C146.917 120.465 147.939 116.195 148.251 113.749C148.305 113.32 148.354 112.825 148.396 112.271C148.35 112.304 148.303 112.336 148.257 112.369C143.299 115.826 137.081 117.793 129.558 117.974C116.674 118.284 107.13 113.838 100.974 106.404C95.0403 99.24 92.9577 90.158 92.9577 82.2113L92.9319 75C92.9319 75 103.947 75 107.014 75Z" fill="black"/>
</svg>
